<svg xmlns="http://www.w3.org/2000/svg" width="1681.625" height="965.685" viewBox="0 0 1681.625 965.685">
  <title>Asset 3</title>
  <g>
    <g>
      <path d="M1681.625,391.685c-220.914-220.913-579.086-220.913-800,0v-226c220.914-220.913,579.086-220.913,800,0Z"/>
      <path d="M1681.625,965.685c-220.914-220.914-579.086-220.914-800,0v-226c220.914-220.914,579.086-220.914,800,0Z"/>
      <path d="M1681.625,678.685c-220.914-220.914-579.086-220.914-800,0v-226c220.914-220.914,579.086-220.914,800,0Z"/>
    </g>
    <path d="M800,965.685c-220.914-220.914-579.086-220.914-800,0v-800c220.914-220.913,579.086-220.913,800,0Z"/>
  </g>
</svg>
