<?xml version="1.0" encoding="UTF-8"?>
<svg width="1104px" height="384px" viewBox="0 0 1104 384" version="1.1" xmlns="http://www.w3.org/2000/svg" xmlns:xlink="http://www.w3.org/1999/xlink">
    <!-- Generator: Sketch 55.2 (78181) - https://sketchapp.com -->
    <title>Asset 1</title>
    <desc>Created with Sketch.</desc>
    <g id="Page-1" stroke="none" stroke-width="1" fill="none" fill-rule="evenodd">
        <g id="thegreatbooks-index" transform="translate(-89.000000, -232.000000)" fill="#4B4644" fill-rule="nonzero">
            <g id="Asset-1" transform="translate(89.000000, 232.000000)">
                <g id="Group" transform="translate(0.000000, 3.000000)">
                    <path d="M0.746217133,0 L144.646729,0 L151.469286,38.5538212 L153.601335,20.4012992 C153.601335,-0.313931852 136.651545,1.76826921 116.223318,1.76826921 L90.7591918,1.76826921 L90.7591918,171.995146 L65.0402853,171.995146 L65.0402853,1.76826921 L39.8256084,1.76826921 C29.9217839,1.74608946 20.4172331,5.67716011 13.4142541,12.6919732 C6.41127519,19.7067862 2.48699574,29.2272388 2.50942162,39.1475155 L0.746217133,39.1475155 L0.746217133,0 Z" id="Path"></path>
                    <path d="M254.957379,1.76826921 L249.667766,1.76826921 C247.493112,1.73059587 245.393,2.5619 243.831537,4.07847084 C242.270073,5.59504168 241.375813,7.67202016 241.346379,9.8504127 L241.346379,162.144734 C241.375813,164.323126 242.270073,166.400105 243.831537,167.916676 C245.393,169.433246 247.493112,170.264551 249.667766,170.226877 L254.962709,170.226877 L254.962709,171.995146 L202.258459,171.995146 L202.258459,170.226877 L207.559799,170.226877 C209.708157,170.254704 211.776653,169.412133 213.295899,167.890363 C214.815145,166.368593 215.656318,164.296661 215.628538,162.144734 L215.628538,86.8811739 L160.654722,86.8811739 L160.654722,162.144734 C160.68494,166.59578 164.279796,170.196609 168.723461,170.226877 L174.018405,170.226877 L174.018405,171.995146 L121.57,171.995146 L121.57,170.226877 L126.864944,170.226877 C131.308609,170.196609 134.903465,166.59578 134.933683,162.144734 L134.933683,9.8504127 C134.904039,5.39912565 131.308849,1.79796291 126.864944,1.76826921 L121.57,1.76826921 L121.57,-5.68434189e-14 L174.018405,-5.68434189e-14 L174.018405,1.76826921 L168.724527,1.76826921 C164.280206,1.79738141 160.684373,5.39871255 160.654722,9.8504127 L160.654722,85.1129047 L215.622142,85.1129047 L215.622142,9.8504127 C215.650182,7.69952216 214.809975,5.62841681 213.292061,4.10677487 C211.774147,2.58513294 209.707144,1.74188833 207.559799,1.76826921 L202.263789,1.76826921 L202.263789,-5.68434189e-14 L254.962709,-5.68434189e-14 L254.957379,1.76826921 Z" id="Path"></path>
                    <path d="M261.508099,-5.68434189e-14 L383.292868,-5.68434189e-14 L383.292868,39.1475155 L381.534993,39.1475155 C381.557427,29.2259405 377.632124,19.7043491 370.627529,12.6893193 C363.622933,5.67428955 354.11646,1.74409808 344.211344,1.76826921 L304.625591,1.76826921 C303.55137,1.75406545 302.51698,2.17516617 301.757224,2.93598316 C300.997468,3.69680015 300.576792,4.7327972 300.590689,5.80880705 L300.590689,85.1129047 L335.889957,85.1129047 C340.840896,85.1234232 345.592081,83.158059 349.092932,79.6513928 C352.593782,76.1447266 354.555887,71.3856487 354.545386,66.4264849 L356.310722,66.4264849 L356.310722,105.570797 L354.545386,105.570797 C354.555887,100.611633 352.593782,95.8525554 349.092932,92.3458892 C345.592081,88.839223 340.840896,86.8738588 335.889957,86.8843773 L300.590689,86.8843773 L300.590689,166.189543 C300.576792,167.265553 300.997468,168.30155 301.757224,169.062367 C302.51698,169.823184 303.55137,170.244284 304.625591,170.230081 L344.211344,170.230081 C354.117016,170.254255 363.623976,166.323624 370.628664,159.307901 C377.633352,152.292177 381.558279,142.76976 381.534993,132.847631 L383.298198,132.847631 L383.298198,171.995146 L261.508099,171.995146 L261.508099,170.226877 L266.804109,170.226877 C268.952468,170.254704 271.020963,169.412133 272.540209,167.890363 C274.059455,166.368593 274.900629,164.296661 274.872848,162.144734 L274.872848,9.8504127 C274.900925,7.69839671 274.059847,5.62629131 272.540536,4.10445627 C271.021225,2.58262124 268.952556,1.74014603 266.804109,1.76826921 L261.508099,1.76826921 L261.508099,-5.68434189e-14 Z" id="Path"></path>
                </g>
                <g id="Group" transform="translate(421.381686, 0.000000)">
                    <path d="M84.0069198,87.9756709 L168.26511,87.9756709 L168.26511,173.226784 L165.00602,173.226784 C165.00602,158.432538 164.001999,120.568598 141.935817,120.568598 C139.179267,128.095588 126.138665,174.981314 84.0069198,174.981314 C36.3652551,174.985555 0,134.113999 0,87.9756709 C0,41.0857038 36.8635545,0.713473839 84.0069198,0.713473839 C115.354194,0.713473839 142.437297,18.5174555 157.479578,45.345344 L138.420156,56.377155 C129.393515,19.2722748 104.317392,2.46588432 84.0037392,2.46588432 C52.409436,2.46588432 26.0780227,28.7955073 26.0780227,87.9724905 C26.0780227,146.899281 52.4083758,173.227844 84.0037392,173.227844 C108.829652,173.227844 140.427136,148.152366 141.932636,92.2331909 C141.981467,91.5312747 141.741289,90.8398955 141.267807,90.3194003 C140.794324,89.7989052 140.128674,89.4945162 139.425236,89.4768284 L84.0069198,89.4768284 L84.0069198,87.9756709 Z" id="Path"></path>
                    <path d="M333.283769,171.476493 L333.283769,173.226784 L276.610163,173.226784 L276.610163,171.472253 L283.882153,171.472253 C285.368297,171.472974 286.731181,170.646137 287.416943,169.327761 C288.102706,168.009385 287.997224,166.418871 287.143364,165.202588 L236.237308,90.2327078 L213.167105,90.2327078 L213.167105,163.451238 C213.139188,165.587919 213.975647,167.645272 215.486641,169.156362 C216.997634,170.667453 219.055016,171.504126 221.191846,171.476493 L226.456857,171.476493 L226.456857,173.226784 L174.047421,173.226784 L174.047421,171.472253 L179.313491,171.472253 C181.475376,171.507946 183.562555,170.681698 185.114151,169.175956 C186.665748,167.670215 187.554133,165.608835 187.583141,163.446997 L187.583141,12.248851 C187.554136,10.0871078 186.665716,8.02583461 185.114087,6.52026085 C183.562459,5.0146871 181.475277,4.18867768 179.313491,4.22465565 L174.047421,4.22465565 L174.047421,2.46906474 L262.568721,2.46906474 C286.794195,2.49594053 306.426119,22.1265292 306.452996,46.3503562 C306.452996,70.6741954 286.390614,90.2327078 262.066181,90.2327078 L238.494498,90.2327078 C248.274949,103.521556 260.561741,105.778592 277.616303,105.778592 L319.996138,167.964251 C321.513498,170.205396 324.061561,171.527011 326.767709,171.476493 L333.283769,171.476493 Z M250.53108,88.4771169 C267.583522,88.4771169 280.874333,66.1601217 280.874333,46.3503562 C280.874333,25.7836512 267.583522,4.22433741 250.53108,4.22433741 L217.177885,4.22433741 C216.109701,4.21112439 215.081338,4.629605 214.326156,5.38513467 C213.570974,6.14066433 213.153009,7.16917837 213.16676,8.2372834 L213.16676,88.4771169 L250.53108,88.4771169 Z" id="Shape"></path>
                    <path d="M321.282009,2.46906474 L321.282009,4.22465565 L326.54914,4.22465565 C328.685689,4.19702254 330.742802,5.03358466 332.253596,6.54447633 C333.764391,8.055368 334.600738,10.1124511 334.572821,12.248851 L334.572821,163.451238 C334.600732,165.587733 333.764418,167.64492 332.253656,169.155978 C330.742894,170.667037 328.685788,171.503838 326.54914,171.476493 L321.282009,171.476493 L321.282009,173.226784 L412.478224,173.226784 C412.478224,173.226784 410.065182,171.472253 408.835337,171.472253 L364.164385,171.472253 C363.095827,171.48606 362.06698,171.067772 361.311233,170.312276 C360.555486,169.55678 360.136898,168.528113 360.150424,167.459625 L360.150424,88.7230692 L395.260388,88.7230692 C400.184244,88.7129095 404.909356,90.6642732 408.391055,94.1457354 C411.872754,97.6271977 413.824251,102.351989 413.81409,107.275509 L415.5698,107.275509 L415.5698,68.4171585 L413.81409,68.4171585 C413.824251,73.3406791 411.872754,78.0654702 408.391055,81.5469324 C404.909356,85.0283946 400.184244,86.9797584 395.260388,86.9695986 L360.150424,86.9695986 L360.150424,8.2372834 C360.136603,7.16870727 360.555097,6.13986861 361.310909,5.38430781 C362.06672,4.62874701 363.09574,4.21055381 364.164385,4.22465565 L403.530038,4.22465565 C413.380041,4.20235252 422.833038,8.10511312 429.79806,15.0696614 C436.763081,22.0342098 440.666107,31.4865632 440.643803,41.3358967 L442.398453,41.3358967 L442.398453,2.46906474 L321.282009,2.46906474 Z" id="Path"></path>
                    <path d="M548.156424,163.953744 C549.506046,168.486643 553.711372,171.564559 558.440476,171.480734 L562.954856,171.480734 L562.954856,173.226784 L510.79245,173.226784 L510.79245,171.472253 L516.05852,171.472253 C517.790804,171.487636 519.427207,170.678529 520.466585,169.292716 C521.505963,167.906903 521.82448,166.109497 521.324591,164.450949 L504.774689,112.545462 L448.596201,112.545462 L435.5556,153.166825 C432.546719,162.193912 438.063,171.472253 457.372632,171.472253 L457.372632,173.226784 L405.210225,173.226784 L405.210225,171.472253 C422.513938,171.472253 430.036138,164.701142 433.296289,154.42097 L475.676124,22.0233366 L469.407093,2.46482418 L496.239986,2.46482418 L548.156424,163.953744 Z M449.101922,110.793052 L504.020879,110.793052 L476.683325,24.78606 L449.101922,110.793052 Z" id="Shape"></path>
                    <path d="M527.942995,2.46906474 L681.664123,2.46906474 L681.664123,41.3358967 L679.908413,41.3358967 C679.930718,31.4865632 676.027692,22.0342098 669.06267,15.0696614 C662.097648,8.10511312 652.644652,4.20235252 642.794649,4.22465565 L617.717466,4.22465565 L617.717466,163.451238 C617.689843,165.587831 618.526397,167.645012 620.037325,169.156038 C621.548254,170.667063 623.605464,171.503832 625.742207,171.476493 L631.008277,171.476493 L631.008277,173.226784 L578.598841,173.226784 L578.598841,171.472253 L583.863852,171.472253 C586.026746,171.509371 588.115402,170.683789 589.66832,169.177924 C591.221237,167.672058 592.110587,165.609865 592.139863,163.446997 L592.139863,4.22465565 L566.81247,4.22465565 C556.962467,4.20235252 547.50947,8.10511312 540.544449,15.0696614 C533.579427,22.0342098 529.676401,31.4865632 529.698705,41.3358967 L527.942995,41.3358967 L527.942995,2.46906474 Z" id="Path"></path>
                </g>
                <g id="Group" transform="translate(65.058930, 208.000000)">
                    <path d="M82.9731921,88.3061333 C106.032239,88.3061333 131.099508,106.7232 131.600769,129.934933 C131.923189,141.38845 127.631271,152.486638 119.700636,160.7067 C111.770001,168.926763 100.874422,173.570338 89.4906396,173.581867 L0.00555589237,173.581867 L0.00555589237,1.7696 L74.7018625,1.7696 C98.7644905,1.7696 118.817034,21.7002667 118.817034,45.92 C118.817034,66.1034667 97.5108091,88.3061333 81.2171904,88.3061333 L82.9731921,88.3061333 Z M62.9174696,3.53493333 L25.5730255,3.53493333 L25.5730255,88.3061333 L63.4208497,88.3061333 C77.2081654,87.5498667 93.2495642,65.6 93.2495642,45.92 C93.2495642,25.2330667 82.9731921,3.53493333 62.9174696,3.53493333 Z M65.9250332,171.816533 C83.9725341,171.816533 106.02906,158.4448 106.02906,130.944 C106.02906,103.4432 74.9487836,90.0725333 65.9250332,90.0725333 L25.5730255,90.0725333 L25.5730255,171.816533 L65.9250332,171.816533 Z" id="Shape"></path>
                    <path d="M137.365539,87.8016 C137.365539,40.3701333 173.961801,0.00213333333 221.335696,0.00213333333 C269.210852,0.00213333333 305.305854,41.1264 305.305854,87.8016 C305.305854,134.980267 268.459491,175.3472 221.335696,175.3472 C173.710641,175.3472 137.365539,134.4768 137.365539,87.8016 Z M163.435329,87.8016 C163.435329,147.0912 189.754159,173.581867 221.337816,173.581867 C246.653065,173.581867 279.240303,147.0912 279.240303,87.8016 C279.240303,28.2602667 246.653065,2.02133333 221.337816,2.02133333 C189.75204,2.02666667 163.433209,28.2602667 163.433209,87.8016 L163.435329,87.8016 Z" id="Shape"></path>
                    <path d="M317.272235,87.8016 C317.272235,40.3701333 353.867438,0.00213333333 401.243452,0.00213333333 C449.118608,0.00213333333 485.21361,41.1264 485.21361,87.8016 C485.21361,134.980267 448.366187,175.3472 401.243452,175.3472 C353.617337,175.3472 317.272235,134.4768 317.272235,87.8016 Z M343.340965,87.8016 C343.340965,147.0912 369.661915,173.581867 401.244512,173.581867 C426.560821,173.581867 459.145939,147.0912 459.145939,87.8016 C459.145939,28.2602667 426.560821,2.02133333 401.244512,2.02133333 C369.660855,2.02666667 343.340965,28.2602667 343.340965,87.8016 L343.340965,87.8016 Z" id="Shape"></path>
                    <path d="M644.699227,171.816533 L644.699227,173.581867 L584.039277,173.581867 L584.039277,171.816533 L593.814389,171.816533 C595.299662,171.817347 596.661767,170.985527 597.347044,169.659186 C598.032321,168.332844 597.9267,166.732764 597.073112,165.509333 L545.688073,90.3242667 L526.638051,115.805867 L526.638051,163.741867 C526.668084,168.188385 530.241609,171.785716 534.65928,171.816533 L539.924106,171.816533 L539.924106,173.581867 L487.784526,173.581867 L487.784526,171.816533 L493.049352,171.816533 C497.466848,171.78571 501.040065,168.188212 501.069521,163.741867 L501.069521,11.6085333 C501.040058,7.16236427 497.466676,3.56517642 493.049352,3.53493333 L487.784526,3.53493333 L487.784526,1.7696 L539.925166,1.7696 L539.925166,3.53493333 L534.66034,3.53493333 C530.24284,3.56516974 526.669151,7.16219173 526.63911,11.6085333 L526.63911,112.778667 L597.826593,17.1584 C601.836678,11.6117333 597.826593,3.53493333 591.059045,3.53493333 L591.059045,1.7696 L629.65929,1.7696 L629.65929,3.53493333 C617.236024,3.54331288 605.539432,9.42979261 598.078813,19.4282667 L546.692713,88.5578667 C556.718985,103.1904 569.75388,105.713067 587.30012,105.713067 L630.16267,168.282667 C631.615659,170.478056 634.058292,171.802307 636.679058,171.815467 L644.699227,171.816533 Z" id="Path"></path>
                    <path d="M756.323723,123.376 C756.323723,162.481067 716.969998,175.3472 695.664833,175.3472 C666.839699,175.3472 639.767388,165.761067 629.991217,136.242133 L654.306065,122.114133 C653.302484,138.261333 659.816752,173.581867 695.664833,173.581867 C712.708753,173.581867 736.52234,167.5264 736.52234,128.421333 C736.52234,112.528 726.996269,95.8741333 695.162513,90.8288 C661.574873,85.2821333 634.503622,76.9525333 634.503622,47.6874667 C634.39148,41.0456643 635.85256,34.4724848 638.765927,28.512 C647.788617,7.57333333 671.099884,2.27373675e-13 692.406109,2.27373675e-13 C725.743648,2.27373675e-13 740.031164,19.4272 745.04483,33.5552 L721.482403,47.1818667 C721.733563,35.0709333 729.503632,1.7696 692.406109,1.7696 C672.103465,1.7696 642.776012,14.384 642.776012,38.8565333 C642.776012,61.0581333 668.845801,67.1125333 699.674918,70.8970667 C734.516238,75.4389333 756.323723,92.8469333 756.323723,123.376 Z" id="Path"></path>
                </g>
            </g>
        </g>
    </g>
</svg>