<?xml version="1.0" encoding="utf-8"?>
<!-- Generator: Adobe Illustrator 23.0.4, SVG Export Plug-In . SVG Version: 6.00 Build 0)  -->
<svg version="1.1" id="Layer_1" xmlns="http://www.w3.org/2000/svg" xmlns:xlink="http://www.w3.org/1999/xlink" x="0px" y="0px"
	 viewBox="0 0 1104 384" style="enable-background:new 0 0 1104 384;" xml:space="preserve">
<style type="text/css">
	.st0{fill:#4B4644;}
</style>
<title>Asset 1</title>
<desc>Created with Sketch.</desc>
<g id="Page-1">
	<g id="thegreatbooks-index" transform="translate(-89.000000, -232.000000)">
		<g id="Asset-1" transform="translate(89.000000, 232.000000)">
			<g id="Group" transform="translate(0.000000, 3.000000)">
				<path class="st0" d="M248.9,169.5h5.3v1.8h-52.7v-1.8h5.3c2.2,0,4.2-0.8,5.7-2.3c1.5-1.5,2.4-3.6,2.3-5.8V86.2h-55v75.3
					c0,4.5,3.6,8,8.1,8.1h5.3v1.8h-52.5v-1.8h5.3c4.4,0,8-3.6,8.1-8.1V9.1c0-4.5-3.6-8.1-8.1-8.1H90v170.2H64.3V1H39.1
					C29.2,1,19.7,5,12.7,12c-7,7-10.9,16.5-10.9,26.5H0V-0.7h173.3V1H168c-4.4,0-8,3.6-8.1,8.1v75.3h55V9.1c0-2.2-0.8-4.2-2.3-5.8
					C211,1.9,209,1,206.8,1h-5.3v-1.8h52.7l0,1.8h-5.3c-2.2,0-4.3,0.8-5.8,2.3c-1.6,1.5-2.5,3.6-2.5,5.8v152.3
					c0,2.2,0.9,4.3,2.5,5.8C244.7,168.7,246.8,169.5,248.9,169.5z"/>
				<path class="st0" d="M260.8-0.7h121.8v39.1h-1.8c0-9.9-3.9-19.4-10.9-26.5c-7-7-16.5-10.9-26.4-10.9h-39.6
					c-1.1,0-2.1,0.4-2.9,1.2c-0.8,0.8-1.2,1.8-1.2,2.9v79.3h35.3c5,0,9.7-2,13.2-5.5c3.5-3.5,5.5-8.3,5.5-13.2h1.8v39.1h-1.8
					c0-5-2-9.7-5.5-13.2c-3.5-3.5-8.3-5.5-13.2-5.5h-35.3v79.3c0,1.1,0.4,2.1,1.2,2.9c0.8,0.8,1.8,1.2,2.9,1.2h39.6
					c9.9,0,19.4-3.9,26.4-10.9c7-7,10.9-16.5,10.9-26.5h1.8v39.1H260.8v-1.8h5.3c2.1,0,4.2-0.8,5.7-2.3c1.5-1.5,2.4-3.6,2.3-5.7V9.1
					c0-2.2-0.8-4.2-2.3-5.7c-1.5-1.5-3.6-2.4-5.7-2.3h-5.3V-0.7z"/>
			</g>
			<g transform="translate(421.381686, 0.000000)">
				<path class="st0" d="M83.3,87.3h84.3v85.3h-3.3c0-14.8-1-52.7-23.1-52.7c-2.8,7.5-15.8,54.4-57.9,54.4c-47.6,0-84-40.9-84-87
					C-0.7,40.4,36.1,0,83.3,0c31.3,0,58.4,17.8,73.5,44.6l-19.1,11c-9-37.1-34.1-53.9-54.4-53.9c-31.6,0-57.9,26.3-57.9,85.5
					c0,58.9,26.3,85.3,57.9,85.3c24.8,0,56.4-25.1,57.9-81c0-0.7-0.2-1.4-0.7-1.9c-0.5-0.5-1.1-0.8-1.8-0.8H83.3V87.3z"/>
				<path class="st0" d="M557.7,170.8c-4.7,0.1-8.9-3-10.3-7.5L495.5,1.8h-26.8l6.3,19.6l-42.4,132.4c-3.3,10.3-10.8,17-28.1,17h-41
					c-1.1,0-2.1-0.4-2.8-1.2c-0.8-0.8-1.2-1.8-1.2-2.8V88h35.1c4.9,0,9.6,1.9,13.1,5.4c3.5,3.5,5.4,8.2,5.4,13.1h1.8V67.7h-1.8
					c0,4.9-1.9,9.6-5.4,13.1c-3.5,3.5-8.2,5.4-13.1,5.4h-35.1V7.5c0-1.1,0.4-2.1,1.2-2.9c0.8-0.8,1.8-1.2,2.8-1.2h39.4
					c9.9,0,19.3,3.9,26.3,10.8c7,7,10.9,16.4,10.9,26.3h1.8V1.8H320.5v1.8h5.3c2.1,0,4.2,0.8,5.7,2.3s2.3,3.6,2.3,5.7v151.2
					c0,2.1-0.8,4.2-2.3,5.7c-1.5,1.5-3.5,2.3-5.6,2.3h-0.1c-2.6,0-5.1-1.3-6.5-3.5l-42.4-62.2c-17,0-29.3-2.3-39.1-15.5h23.6
					c24.3,0,44.4-19.6,44.4-43.9c0-24.2-19.7-43.9-43.9-43.9h-88.5v1.8h5.3c2.2,0,4.2,0.8,5.8,2.3c1.5,1.5,2.4,3.6,2.5,5.7v151.2
					c0,2.2-0.9,4.2-2.5,5.7c-1.5,1.5-3.6,2.3-5.8,2.3h-5.3v1.8h52.4v-1.8h-5.3c-2.1,0-4.2-0.8-5.7-2.3s-2.3-3.6-2.3-5.7V89.5h23.1
					l50.9,75c0.8,1.2,1,2.8,0.3,4.1c-0.7,1.3-2,2.2-3.5,2.2h-7.3v1.8h180.8v-1.8c-19.3,0-24.8-9.3-21.8-18.3l13-40.6H504l16.6,51.9
					c0.5,1.7,0.2,3.5-0.9,4.8c-1,1.4-2.7,2.2-4.4,2.2H510v1.8h52.2v-1.7H557.7z M212.4,87.8V7.5c0-1.1,0.4-2.1,1.2-2.9
					c0.8-0.8,1.8-1.2,2.8-1.2h33.4c17,0,30.3,21.6,30.3,42.1c0,19.8-13.3,42.1-30.3,42.1H212.4z M448.4,110.1l27.6-86l27.3,86H448.4
					z"/>
				<path class="st0" d="M527.2,1.8h153.7v38.9h-1.8c0-9.8-3.9-19.3-10.8-26.3S651.9,3.5,642,3.5H617v159.2c0,2.1,0.8,4.2,2.3,5.7
					c1.5,1.5,3.6,2.3,5.7,2.3h5.3v1.8h-52.4v-1.8h5.3c2.2,0,4.3-0.8,5.8-2.3c1.6-1.5,2.4-3.6,2.5-5.7V3.5h-25.3
					c-9.9,0-19.3,3.9-26.3,10.8S528.9,30.8,529,40.6h-1.8V1.8z"/>
			</g>
			<g transform="translate(65.058930, 208.000000)">
				<path class="st0" d="M82.2,87.6c23.1,0,48.1,18.4,48.6,41.6c0.3,11.5-4,22.6-11.9,30.8s-18.8,12.9-30.2,12.9H-0.7V1.1H74
					c24.1,0,44.1,19.9,44.1,44.2c0,20.2-21.3,42.4-37.6,42.4H82.2z M62.2,2.8H24.8v84.8h37.8c13.8-0.8,29.8-22.7,29.8-42.4
					C92.5,24.5,82.2,2.8,62.2,2.8z M65.2,171.1c18,0,40.1-13.4,40.1-40.9S74.2,89.4,65.2,89.4H24.8v81.7H65.2z"/>
				<path class="st0" d="M136.6,87.1c0-47.4,36.6-87.8,84-87.8c47.9,0,84,41.1,84,87.8c0,47.2-36.8,87.5-84,87.5
					C173,174.6,136.6,133.8,136.6,87.1z M162.7,87.1c0,59.3,26.3,85.8,57.9,85.8c25.3,0,57.9-26.5,57.9-85.8
					c0-59.5-32.6-85.8-57.9-85.8C189,1.3,162.7,27.5,162.7,87.1L162.7,87.1z"/>
				<path class="st0" d="M316.5,87.1c0-47.4,36.6-87.8,84-87.8c47.9,0,84,41.1,84,87.8c0,47.2-36.8,87.5-84,87.5
					C352.9,174.6,316.5,133.8,316.5,87.1z M342.6,87.1c0,59.3,26.3,85.8,57.9,85.8c25.3,0,57.9-26.5,57.9-85.8
					c0-59.5-32.6-85.8-57.9-85.8C368.9,1.3,342.6,27.5,342.6,87.1L342.6,87.1z"/>
				<path class="st0" d="M644,171.1v1.8h-60.7v-1.8h9.8c1.5,0,2.8-0.8,3.5-2.2s0.6-2.9-0.3-4.1l-51.4-75.2l-19,25.5V163
					c0,4.4,3.6,8,8,8.1h5.3v1.8H487v-1.8h5.3c4.4,0,8-3.6,8-8.1V10.9c0-4.4-3.6-8-8-8.1H487V1.1h52.1v1.8h-5.3c-4.4,0-8,3.6-8,8.1
					v101.2l71.2-95.6c4-5.5,0-13.6-6.8-13.6V1.1h38.6v1.8c-12.4,0-24.1,5.9-31.6,15.9l-51.4,69.1c10,14.6,23.1,17.2,40.6,17.2
					l42.9,62.6c1.5,2.2,3.9,3.5,6.5,3.5L644,171.1z"/>
				<path class="st0" d="M754.6,122.7c0,39.1-39.4,52-60.7,52c-28.8,0-55.9-9.6-65.7-39.1l24.3-14.1c-1,16.1,5.5,51.5,41.4,51.5
					c17,0,40.9-6.1,40.9-45.2c0-15.9-9.5-32.5-41.4-37.6c-33.6-5.5-60.7-13.9-60.7-43.1c-0.1-6.6,1.3-13.2,4.3-19.2
					c9-20.9,32.3-28.5,53.6-28.5c33.3,0,47.6,19.4,52.6,33.6l-23.6,13.6c0.3-12.1,8-45.4-29.1-45.4c-20.3,0-49.6,12.6-49.6,37.1
					c0,22.2,26.1,28.3,56.9,32C732.8,74.7,754.6,92.1,754.6,122.7z"/>
			</g>
		</g>
	</g>
</g>
</svg>
