<?xml version="1.0" encoding="utf-8"?>
<!-- Generator: Adobe Illustrator 23.0.4, SVG Export Plug-In . SVG Version: 6.00 Build 0)  -->
<svg version="1.1" id="Layer_1" xmlns="http://www.w3.org/2000/svg" xmlns:xlink="http://www.w3.org/1999/xlink" x="0px" y="0px"
	 viewBox="0 0 1681.6 965.7" style="enable-background:new 0 0 1681.6 965.7;" xml:space="preserve">
<style type="text/css">
	.st0{fill:#4B4644;}
</style>
<title>Asset 3</title>
<g>
	<g>
		<path class="st0" d="M1681.6,391.7c-220.9-220.9-579.1-220.9-800,0v-226c220.9-220.9,579.1-220.9,800,0V391.7z"/>
		<path class="st0" d="M1681.6,965.7c-220.9-220.9-579.1-220.9-800,0v-226c220.9-220.9,579.1-220.9,800,0V965.7z"/>
		<path class="st0" d="M1681.6,678.7c-220.9-220.9-579.1-220.9-800,0v-226c220.9-220.9,579.1-220.9,800,0V678.7z"/>
	</g>
	<path class="st0" d="M800,965.7c-220.9-220.9-579.1-220.9-800,0v-800c220.9-220.9,579.1-220.9,800,0V965.7z"/>
</g>
</svg>
