<?xml version="1.0" encoding="utf-8"?>
<!-- Generator: Adobe Illustrator 23.0.4, SVG Export Plug-In . SVG Version: 6.00 Build 0)  -->
<svg version="1.1" id="Layer_1" xmlns="http://www.w3.org/2000/svg" xmlns:xlink="http://www.w3.org/1999/xlink" x="0px" y="0px"
	 viewBox="0 0 1102.8 381.3" style="enable-background:new 0 0 1102.8 381.3;" xml:space="preserve">
<style type="text/css">
	.st0{fill:#4B4644;}
</style>
<title>Asset 1</title>
<desc>Created with Sketch.</desc>
<g id="Page-1">
	<g id="thegreatbooks-index" transform="translate(-89.000000, -232.000000)">
		<g id="Asset-1" transform="translate(89.000000, 232.000000)">
			<g id="Group" transform="translate(0.000000, 3.000000)">
				<path id="Path" class="st0" d="M0-2h143.6l6.8,38.6l2.1-18.2C152.6-2.3,115.2,0,115.2,0H90v170H64V0H38.9
					C29,0,19.6,3.9,12.6,10.8S1.7,27.2,1.8,37H0V-2z"/>
				<path class="st0" d="M254,0h-5.7c-2.2,0-4.3,0.8-5.8,2.3c-1.6,1.5-2.4,3.6-2.5,5.8v151.9c0,2.2,0.9,4.2,2.5,5.8
					c1.6,1.5,3.7,2.3,5.8,2.3h5.7v2h-53v-2h5.9c2.1,0,4.2-0.8,5.7-2.3c1.5-1.5,2.4-3.6,2.3-5.7V85h-55v75c0,4.4,3.6,8,8.1,8h4.9v2
					h-52v-2h5.2c4.3,0,7.8-3.6,7.8-8.1V8.1c0-4.4-3.5-8-7.8-8.1H121v-2h52v2h-4.9c-4.4,0-8,3.6-8.1,8v75h55V8c0-2.1-0.8-4.2-2.3-5.7
					S209.1,0,206.9,0H201v-2h53V0z"/>
				<path class="st0" d="M260-2h122v39h-1.8c0-9.8-3.9-19.2-10.9-26.2S352.7,0,342.8,0H303c-1.1,0-2.1,0.4-2.9,1.2
					C299.4,1.9,299,2.9,299,4v79h35.5c5,0,9.8-2,13.3-5.6c3.5-3.6,5.5-8.4,5.5-13.4h1.8v40h-1.8c0-5-2-9.9-5.5-13.4
					c-3.5-3.6-8.3-5.6-13.3-5.6H299v79c0,1.1,0.4,2.1,1.2,2.8c0.8,0.8,1.8,1.2,2.8,1.2h39.2c9.8,0,19.2-3.9,26.1-10.8
					c6.9-6.9,10.8-16.4,10.8-26.2h2.9v39H260v-2h5.5c2.3,0,4.4-0.8,6-2.3c1.6-1.5,2.5-3.6,2.4-5.7V8.1c0-2.1-0.9-4.2-2.4-5.7
					c-1.6-1.5-3.8-2.4-6-2.3H260V-2z"/>
			</g>
			<g transform="translate(421.381686, 0.000000)">
				<path class="st0" d="M85.6,86h84v85h-2.1c0-14.7-1.6-53.9-23.4-53.9c-2.7,7.5-16.2,55.6-57.9,55.6c-47.2,0-83.3-40.5-83.3-86.2
					C2.9,40,39.4,0,86.1,0c31.1,0,57.9,17.6,72.8,44.2L140,55.2c-8.9-36.8-33.8-53.4-53.9-53.4c-31.3,0-57.4,26.1-57.4,84.7
					c0,58.4,26.1,84.5,57.4,84.5c24.6,0,55.9-24.9,57.4-80.3c0-0.7-0.2-1.4-0.7-1.9c-0.5-0.5-1.1-0.8-1.8-0.8H85.6V86z"/>
				<path id="Shape" class="st0" d="M332.6,169v2h-57v-2l7.2,0c0.9,0,1.8-0.2,2.5-0.8c1.8-1.4,2.1-3.8,0.9-5.5L235.4,88h-22.7v73
					c0,2.1,0.8,4.2,2.3,5.7c1.5,1.5,3.6,2.3,5.7,2.3h5v2h-52v-2h5.1c2.1,0,4.1-0.8,5.6-2.3c1.5-1.5,2.3-3.6,2.4-5.7V10
					c0-2.2-0.9-4.2-2.4-5.7S180.8,2,178.7,2h-5.1V0h88.8c24.3,0,44,19.7,44,44c0,24.4-20.1,44-44.5,44h-24.7
					c9.8,13.2,22.9,15.5,39.9,15.5l42.3,62c1.5,2.2,4.1,3.6,6.8,3.5H332.6z M249.9,86c17,0,30.3-22.3,30.3-42
					c0-20.5-13.3-42-30.3-42h-33.3c-1.1,0-2.1,0.4-2.8,1.2c-0.8,0.8-1.2,1.8-1.2,2.8v80H249.9z"/>
				<path class="st0" d="M320.6,0v2h5.2c2.1,0,4.1,0.8,5.6,2.3s2.3,3.6,2.3,5.7v151c0,2.1-0.8,4.2-2.3,5.7c-1.5,1.5-3.5,2.3-5.6,2.3
					h-5.2v2h90.9c0,0.2-2.4-1.5-3.6-2h-44.7c-1.1,0.5-2.1,0.1-2.9-0.7c-0.8-0.8-0.7-2.9-0.7-2.9V86h34.8c4.9,0,9.6,2,13,5.6
					s5.4,8.4,5.4,13.4h1.7V66h-1.7c0,5-1.9,9.9-5.4,13.4s-8.1,5.6-13,5.6h-34.8V6c0-1.1,0.4-2.1,1.2-2.8c0.8-0.8,1.8-1.2,2.8-1.2
					h39.2c9.8,0,19.2,3.9,26.2,10.8s10.8,16.4,10.8,26.2h1.7V0H320.6z"/>
				<path class="st0" d="M547.6,161.5c1.3,4.5,5.6,7.6,10.3,7.5h3.8v2h-52v-1h5.3c1.7,0,3.4-0.8,4.4-2.2c1-1.4,1.4-3.2,0.9-4.8
					l-16.6-52h-55.7l-13,40.2c-3,8.9,2.5,18.1,21.7,18.1v1.7h-52v-2c17.3,0,24.8-6.8,28.1-17l42.4-132.4L468.8,0h26.8L547.6,161.5z
					 M448.1,109H503l-27.3-86L448.1,109z"/>
				<path class="st0" d="M526.6,0h154v39h-1.8c0-9.8-3.9-19.2-10.9-26.2S651.6,2,641.7,2h-25.1v159.5c0,0,0.9,4.2,2.4,5.7
					c1.5,1.5,3.6,2.3,5.7,1.8h4.9v2h-52v-2h5.2c2.2,0.5,4.3-0.3,5.8-1.8c1.6-1.5,3-5.7,3-5.7V2h-25.3c-9.8,0-19.2,3.9-26.2,10.8
					S529.3,29.2,529.4,39h-2.7V0z"/>
			</g>
			<g transform="translate(65.058930, 208.000000)">
				<path class="st0" d="M81.6,87c23,0,48,18.4,48.5,41.5c0.3,11.4-4,22.5-11.9,30.7S99.5,172,88.1,172H-1.1V0H74
					c24.2,0,44.4,20,44.4,44.4C118.4,64.7,97,87,80.6,87H81.6z M62.4,1H24.9v85h37.9c13.8-0.8,29.9-22.8,29.9-42.5
					C92.8,22.8,82.5,1,62.4,1z M65.4,170c18.1,0,40.2-13.4,40.2-41S74.5,88,65.4,88H24.9v82H65.4z"/>
				<path class="st0" d="M136.4,85.8c0-47.4,36.6-87.8,84-87.8c47.9,0,84,41.1,84,87.8c0,47.2-36.8,87.5-84,87.5
					C172.7,173.3,136.4,132.5,136.4,85.8z M162.4,86c0,59.3,26.3,85.8,57.9,85.8c25.3,0,57.9-26.5,57.9-85.8
					c0-59.5-32.6-85.8-57.9-85.8C188.8,0.2,162.4,26.5,162.4,86L162.4,86z"/>
				<path class="st0" d="M316.3,85.8c0-47.4,36.6-87.8,84-87.8c47.9,0,84,41.1,84,87.8c0,47.2-36.8,87.5-84,87.5
					C352.6,173.3,316.3,132.5,316.3,85.8z M342.3,85.8c0,59.3,26.3,85.8,57.9,85.8c25.3,0,57.9-26.5,57.9-85.8
					c0-59.5-32.6-85.8-57.9-85.8C368.7,0,342.3,26.3,342.3,85.8L342.3,85.8z"/>
				<path class="st0" d="M643.9,170v2h-61v-2h9.9c1.5-0.2,2.8-1,3.5-2.3s0.6-2.9-0.3-4.1l-51.4-75.2l-18.7,25.5v47.9
					c-0.3,4.4,7.7,8.3,7.7,8.3h5.3v2h-52v-2h5.2c4.3,0,7.8-3.6,7.8-8.1V10.1c0-4.4-3.5-8-7.8-8.1h-5.2V0h52v2h-5.3
					c0,0-8,3.2-7.7,7.6v101.2l70.9-95.6c4-5.5,0-13.6-6.9-13.6V0h39v1.8c-12.4,0-24.1,5.9-31.5,15.9l-51.2,69.1
					c10,14.6,23,17.2,40.5,17.2l42.7,62.6c1.4,2.2,3.9,3.5,6.5,3.5L643.9,170z"/>
				<path class="st0" d="M755.3,121.4c0,39.1-39.4,52-60.7,52c-28.8,0-55.9-9.6-65.7-39.1l24.3-14.1c-1,16.1,5.5,51.5,41.4,51.5
					c17,0,40.9-6.1,40.9-45.2c0-15.9-9.5-32.5-41.4-37.6c-33.6-5.5-60.7-13.9-60.7-43.1c-0.1-6.6,1.3-13.2,4.3-19.2
					C646.8,5.6,670.1-2,691.4-2C724.7-2,739,17.4,744,31.6l-23.6,13.6c0.3-12.1,6-45.4-31.1-45.4c-20.3,0-47.6,12.6-47.6,37.1
					c0,22.2,26.1,28.3,56.9,32C733.5,73.4,755.3,90.8,755.3,121.4z"/>
			</g>
		</g>
	</g>
</g>
</svg>
